<?xml version="1.0" encoding="UTF-8"?>
<svg id="Layer_2" data-name="Layer 2" xmlns="http://www.w3.org/2000/svg" viewBox="0 0 76.2 67.79">
  <defs>
    <style>
      .cls-1 {
        fill: #e8be17;
      }

      .cls-2 {
        fill: #ffe342;
      }

      .cls-3 {
        fill: #ffef94;
      }

      .cls-4 {
        fill: #4b3925;
      }
    </style>
  </defs>
  <g id="fruits">
    <g>
      <path class="cls-1" d="M62.02,1.91l5.04,11.85s2.96-.1,5.14,2.77c2.17,2.86,8.53,22.32-1.38,37.53-12.94,19.85-23.5,12.34-23.5,12.34l-2.27-3.36s2.47-4.54,6.02-8c3.56-3.46,11.06-8.3,9.97-22.42s-.2-12.74-.49-14.71c-.41-2.73,1.68-3.46,1.68-3.46l-3.16-12.54h2.96Z"/>
      <path class="cls-2" d="M68.53,52.57c9.91-14.11,3.56-32.17,1.38-34.83s-5.14-2.57-5.14-2.57l-2.8-13.3-2.98.03,3.21,12.54s-2.09.72-1.68,3.46c.3,1.98-.59.59.49,14.71s-6.42,18.96-9.97,22.42c-3.56,3.46-6.02,8-6.02,8l1.01,1.49c2.93,1.2,11.92,3.11,22.5-11.96Z"/>
      <path class="cls-1" d="M50.56,16.43c-5.73,1.19-4.54,12.05-18.86,17.87-16.87,6.86-23.9,7.6-25.87,9.68-1.97,2.07-5.23,4.44-5.23,4.44l.1,5.33s2.47-.59,3.95.49c1.48,1.09,2.37,2.67,9.28,2.77,6.91.1,29.21-1.98,39.5-16.99,9.28-13.53,7.01-21.13,5.43-22.61-1.58-1.48-1.88-1.09-2.07-1.98-.2-.89-.59-15.41-.59-15.41l-3.95.69s1.09,14.81-1.68,15.7Z"/>
      <path class="cls-1" d="M66.36,20.81c-.67-1.77-1.6-3.76-3.48-4.73-1.3-4.46-3.88-14.44-3.73-14.67l-3.26-.3.55,15.16c-1.49.78-1.65,2.09-2.13,4-.69,2.77-.1,8.3-10.76,18.47-12.98,12.38-20.74,12.94-24.89,16.89-1.83,1.75-4.87,3.69-4.94,5.83-.1,3.16-.59,3.56,8.49,5.53,4.62,1,16.11-.31,32.49-13.53,16.39-13.23,12.64-30.02,11.65-32.64Z"/>
      <path class="cls-2" d="M53.33,49.11c9.3-7.51,10.96-16.59,11.46-22.22.34-3.87.33-9.41-3.23-10.8-.69-4.97-1.91-12.64-2.25-14.68l-3.24-.28.38,15.15c-1.49.78-1.65,2.09-2.13,4-.69,2.77-.1,8.3-10.76,18.47-12.98,12.38-28.46,18.57-29.72,19.95,1.48,2.96,5.16,3.26,8.39,3.56,4.71.43,14.73.09,31.11-13.13Z"/>
      <path class="cls-2" d="M56.19,0l-3.95.72s.27,4.27.22,6.12c-.05,1.85-.15,4.11-.15,4.11-.21,2.78-.7,5.13-1.75,5.47-5.73,1.19-4.54,12.05-18.86,17.87-16.87,6.86-19.78,5.89-23.54,7.8-3.76,1.91-7.6,6.16-7.6,6.16l.13,1.05c1.27.58,2.69.74,6.32.79,6.91.1,29.15-3.96,39.6-18.86,3.45-4.93,7.91-9.29,7.41-14.55,3.36-2.86,2.17-16.69,2.17-16.69Z"/>
      <path class="cls-3" d="M49.68,38.57c-.89-.43,2.7-2.77,5.15-7.38,2.53-4.57,2.53-8.85,3.38-8.34.8.39,2.14,5.39-.39,9.96-2.45,4.61-7.37,6.22-8.14,5.76Z"/>
      <path class="cls-3" d="M38.58,33.35c-.32-.36,2.31-1.89,4.48-4.35,2.27-2.58,3.82-5.86,4.35-5.73.87.22-.53,5.14-2.96,7.7s-5.33,3.09-5.86,2.37Z"/>
      <ellipse class="cls-4" cx=".84" cy="50.89" rx=".84" ry="2.96"/>
      <ellipse class="cls-4" cx="14.27" cy="61.36" rx="1.04" ry="2.96"/>
      <path class="cls-4" d="M47.36,63.97c.53,1.06.54,2.13.03,2.39s-1.36-.4-1.89-1.46-.54-2.13-.03-2.39,1.36.4,1.89,1.46Z"/>
    </g>
  </g>
</svg>